<svg width="177" height="18" viewBox="0 0 177 18" fill="none" xmlns="http://www.w3.org/2000/svg">
<path d="M11.4418 0.0880013H15.2069C15.9955 0.0880013 16.4738 0.958206 16.0511 1.62398L8.557 13.4282C8.41137 13.6576 8.57616 13.9574 8.84787 13.9574C8.96445 13.9574 9.07312 13.8985 9.13669 13.8007L13.9345 6.42445C14.119 6.14081 14.4344 5.9697 14.7728 5.9697H18.6958C19.4879 5.9697 19.9655 6.84666 19.536 7.51207L13.6494 16.6304C13.4652 16.9157 13.1488 17.088 12.8092 17.088H1.82862C1.03809 17.088 0.56013 16.214 0.986686 15.5484L10.5999 0.548422C10.7838 0.261523 11.1011 0.0880013 11.4418 0.0880013Z" fill="#272526"/>
<path d="M23.074 11.8324H19.207C18.417 11.8324 17.939 12.7054 18.3644 13.371L20.4454 16.6266C20.6292 16.9141 20.9468 17.088 21.288 17.088H25.1679C25.9591 17.088 26.4369 16.2126 26.0089 15.5471L23.915 12.2915C23.731 12.0054 23.4142 11.8324 23.074 11.8324Z" fill="#272526"/>
<path d="M33.992 17.088V0.288H37.88V13.92H46.304V17.088H33.992ZM49.6764 17.088V0.288H53.5644V17.088H49.6764ZM58.7514 17.088V0.288H61.9674L71.8794 12.384H70.3194V0.288H74.1594V17.088H70.9674L61.0314 4.992H62.5914V17.088H58.7514ZM82.8142 13.248L82.5982 8.76L90.6382 0.288H94.9582L87.7102 8.088L85.5502 10.392L82.8142 13.248ZM79.3342 17.088V0.288H83.1982V17.088H79.3342ZM90.8302 17.088L84.8542 9.768L87.3982 7.008L95.3662 17.088H90.8302ZM95.3184 17.088L102.806 0.288H106.646L114.158 17.088H110.078L103.934 2.256H105.47L99.3024 17.088H95.3184ZM99.0624 13.488L100.094 10.536H108.734L109.79 13.488H99.0624ZM121.227 17.088L113.979 0.288H118.179L124.515 15.168H122.043L128.475 0.288H132.339L125.067 17.088H121.227ZM138.445 17.088V3.456H133.069V0.288H147.709V3.456H142.333V17.088H138.445ZM158.927 17.376C157.599 17.376 156.367 17.16 155.231 16.728C154.111 16.296 153.135 15.688 152.303 14.904C151.487 14.12 150.847 13.2 150.383 12.144C149.935 11.088 149.711 9.936 149.711 8.688C149.711 7.44 149.935 6.288 150.383 5.232C150.847 4.176 151.495 3.256 152.327 2.472C153.159 1.688 154.135 1.08 155.255 0.648C156.375 0.216001 157.591 9.53674e-07 158.903 9.53674e-07C160.231 9.53674e-07 161.447 0.216001 162.551 0.648C163.671 1.08 164.639 1.688 165.455 2.472C166.287 3.256 166.935 4.176 167.399 5.232C167.863 6.272 168.095 7.424 168.095 8.688C168.095 9.936 167.863 11.096 167.399 12.168C166.935 13.224 166.287 14.144 165.455 14.928C164.639 15.696 163.671 16.296 162.551 16.728C161.447 17.16 160.239 17.376 158.927 17.376ZM158.903 14.064C159.655 14.064 160.343 13.936 160.967 13.68C161.607 13.424 162.167 13.056 162.647 12.576C163.127 12.096 163.495 11.528 163.751 10.872C164.023 10.216 164.159 9.488 164.159 8.688C164.159 7.888 164.023 7.16 163.751 6.504C163.495 5.848 163.127 5.28 162.647 4.8C162.183 4.32 161.631 3.952 160.991 3.696C160.351 3.44 159.655 3.312 158.903 3.312C158.151 3.312 157.455 3.44 156.815 3.696C156.191 3.952 155.639 4.32 155.159 4.8C154.679 5.28 154.303 5.848 154.031 6.504C153.775 7.16 153.647 7.888 153.647 8.688C153.647 9.472 153.775 10.2 154.031 10.872C154.303 11.528 154.671 12.096 155.135 12.576C155.615 13.056 156.175 13.424 156.815 13.68C157.455 13.936 158.151 14.064 158.903 14.064ZM172.9 17.28C172.26 17.28 171.708 17.064 171.244 16.632C170.796 16.184 170.572 15.616 170.572 14.928C170.572 14.24 170.796 13.688 171.244 13.272C171.708 12.84 172.26 12.624 172.9 12.624C173.556 12.624 174.108 12.84 174.556 13.272C175.004 13.688 175.228 14.24 175.228 14.928C175.228 15.616 175.004 16.184 174.556 16.632C174.108 17.064 173.556 17.28 172.9 17.28Z" fill="#272526"/>
</svg>
