<svg width="629" height="460" viewBox="0 0 629 460" fill="none" xmlns="http://www.w3.org/2000/svg">
<path d="M260.203 0H373.394C384.878 0 392.103 12.3778 386.455 22.3771L194.324 362.528C191.103 368.231 195.223 375.29 201.773 375.29C204.826 375.29 207.648 373.663 209.177 371.02L327.451 166.639C330.132 162.005 335.08 159.152 340.434 159.152H457.57C469.102 159.152 476.321 171.623 470.577 181.623L315.011 452.471C312.335 457.128 307.374 460 302.003 460H15.0221C3.51101 460 -3.71027 447.57 1.99148 437.57L247.172 7.57011C249.841 2.88963 254.815 0 260.203 0Z" fill="#272526"/>
<path d="M549.128 317.79H433.42C421.916 317.79 414.694 330.206 420.381 340.205L484.193 452.415C486.86 457.104 491.838 460 497.232 460H613.337C624.858 460 632.078 447.55 626.356 437.55L562.147 325.34C559.475 320.671 554.508 317.79 549.128 317.79Z" fill="#272526"/>
</svg>
